<svg width="87" height="59" viewBox="0 0 87 59" fill="none" xmlns="http://www.w3.org/2000/svg">
<path d="M1.09968 44.7253C1.49968 50.3253 4.93301 55.7253 6.59968 57.7253C7.09975 52.2253 19.5996 48.7253 22.0996 48.7253C24.0996 48.7253 37.9329 44.7253 44.5996 42.7253C53.9329 39.7253 75.0996 32.6254 85.0996 28.2254C88.5996 10.7254 79.0996 -0.774631 78.5996 1.22537C78.1996 2.82537 65.7663 7.55868 59.5996 9.72535C47.4329 14.2253 21.0996 23.5253 13.0996 24.7253C5.09961 25.9253 2.43299 28.892 2.09968 30.2253C1.59968 32.7253 0.69968 39.1253 1.09968 44.7253Z" fill="#FB2E86" stroke="#FB2E86"/>
<path d="M41.3804 34.2864L32.1787 29.7995L34.3215 36.2131L32.7515 36.7269L29.473 26.7076L29.5528 26.6815L38.7584 31.2702L36.594 24.7458L38.1375 24.2407L41.4203 34.2733L41.3804 34.2864ZM46.4078 32.4203C45.7426 32.638 45.1328 32.6952 44.5784 32.5918C44.0241 32.4883 43.5488 32.2511 43.1524 31.88C42.7531 31.5 42.4591 31.0217 42.2704 30.4451C42.0875 29.8862 42.064 29.3342 42.1999 28.7889C42.3328 28.2348 42.5952 27.7463 42.9871 27.3234C43.3762 26.8917 43.8678 26.5786 44.4622 26.3841C45.2339 26.1316 45.9422 26.1502 46.5869 26.4401C47.2377 26.7182 47.7809 27.2377 48.2164 27.9986L44.371 30.8773C44.847 31.2518 45.3956 31.3374 46.0165 31.1343C46.2471 31.0588 46.4514 30.9478 46.6293 30.8012C46.8161 30.6517 46.9852 30.4785 47.1369 30.2816L48.1768 31.1639C47.9362 31.4489 47.6618 31.7056 47.3535 31.9341C47.0424 32.1538 46.7272 32.3158 46.4078 32.4203ZM43.7079 29.8863C43.7311 29.9573 43.7602 30.0312 43.7952 30.1082L46.4052 28.0905C46.2175 27.8769 45.9867 27.7118 45.7128 27.5952C45.4361 27.4697 45.107 27.4694 44.7256 27.5942C44.2554 27.748 43.9232 28.0384 43.729 28.4653C43.5437 28.8893 43.5367 29.363 43.7079 29.8863ZM52.5484 24.018L54.8891 26.6696L55.0898 23.1865L56.5535 22.7075L55.936 29.5088L52.8812 26.2955L52.4765 30.6408L47.9313 25.5288L49.395 25.0499L51.6785 27.617L51.9179 25.1524L51.2578 24.4404L52.5484 24.018Z" fill="#EEEFFB"/>
</svg>
