<svg width="87" height="59" viewBox="0 0 87 59" fill="none" xmlns="http://www.w3.org/2000/svg">
<path d="M1.09968 44.7253C1.49968 50.3253 4.93301 55.7253 6.59968 57.7253C7.09975 52.2253 19.5996 48.7253 22.0996 48.7253C24.0996 48.7253 37.9329 44.7253 44.5996 42.7253C53.9329 39.7253 75.0996 32.6254 85.0996 28.2254C88.5996 10.7254 79.0996 -0.774631 78.5996 1.22537C78.1996 2.82537 65.7663 7.55868 59.5996 9.72535C47.4329 14.2253 21.0996 23.5253 13.0996 24.7253C5.09961 25.9253 2.43299 28.892 2.09968 30.2253C1.59968 32.7253 0.69968 39.1253 1.09968 44.7253Z" fill="#3F509E" stroke="#3F509E"/>
<path d="M35.309 27.3463C34.905 27.2821 34.4876 27.2518 34.0566 27.2553C33.6317 27.2471 33.2373 27.3024 32.8736 27.4214C32.3946 27.5782 32.048 27.8094 31.8338 28.1152C31.6256 28.4092 31.5839 28.7469 31.7087 29.1284C31.7958 29.3945 31.9703 29.5976 32.2322 29.7378C32.4912 29.8691 32.7962 29.9608 33.1471 30.0129C33.498 30.065 33.8624 30.098 34.2401 30.1119C34.6768 30.1261 35.1119 30.1802 35.5452 30.2741C35.9875 30.365 36.3893 30.5576 36.7507 30.8518C37.1092 31.1371 37.3886 31.5858 37.5889 32.1979C37.7543 32.7035 37.7781 33.2113 37.6602 33.7213C37.5393 34.2224 37.2801 34.6755 36.8823 35.0806C36.4846 35.4857 35.9442 35.8 35.2612 36.0235C34.658 36.2209 34.042 36.3193 33.4134 36.3188C32.7907 36.3065 32.2127 36.2207 31.6793 36.0613L31.975 34.6241C32.3727 34.7591 32.8209 34.8383 33.3196 34.8617C33.8271 34.8822 34.2761 34.8286 34.6664 34.7009C34.9413 34.6109 35.1974 34.478 35.4345 34.3022C35.6804 34.1236 35.8587 33.9032 35.9694 33.6411C36.0889 33.3761 36.0935 33.0751 35.9832 32.738C35.8932 32.463 35.7365 32.2541 35.513 32.1112C35.2894 31.9683 35.0258 31.868 34.7222 31.8102C34.4244 31.7407 34.1059 31.6976 33.7666 31.681C33.4272 31.6643 33.0747 31.6373 32.7089 31.5999C32.352 31.5595 32.0071 31.4809 31.6742 31.3639C31.3385 31.2381 31.037 31.052 30.7697 30.8055C30.5025 30.5591 30.2963 30.2141 30.1512 29.7706C29.977 29.2384 29.9503 28.7364 30.071 28.2649C30.1887 27.7844 30.4286 27.3622 30.7907 26.9982C31.1617 26.6313 31.6311 26.3402 32.199 26.125C32.882 25.9015 33.4906 25.7956 34.0248 25.8074C34.5649 25.8075 35.059 25.8618 35.507 25.9706L35.309 27.3463ZM42.6061 33.6643C42.0739 33.8385 41.5586 33.8843 41.0603 33.8019C40.5619 33.7194 40.113 33.503 39.7135 33.1525C39.3229 32.7991 39.0202 32.2942 38.8054 31.6378C38.5965 30.9991 38.5466 30.4115 38.6558 29.8749C38.771 29.3266 39.0008 28.8586 39.3453 28.4709C39.6987 28.0803 40.1282 27.8022 40.6338 27.6368C41.1572 27.4655 41.6119 27.4297 41.998 27.5292C42.3901 27.617 42.7287 27.7664 43.0138 27.9775L42.8721 27.1843L44.2426 26.7358L46.0843 32.3642L44.594 32.8518L44.3241 32.0268C44.2642 32.1741 44.1659 32.3536 44.0289 32.5653C43.892 32.7771 43.7049 32.9856 43.4676 33.1909C43.2393 33.3933 42.9521 33.5511 42.6061 33.6643ZM42.6181 32.3052C43.0172 32.1746 43.3239 31.9564 43.5381 31.6506C43.7523 31.3448 43.8561 30.9868 43.8495 30.5765L43.449 29.3524C43.2293 29.0413 42.9339 28.8286 42.5626 28.7144C42.1913 28.6002 41.8017 28.6098 41.3937 28.7434C41.0832 28.845 40.824 29.0132 40.6161 29.2482C40.4142 29.4714 40.2784 29.7466 40.2087 30.0739C40.1449 30.3893 40.1697 30.72 40.2829 31.066C40.3932 31.4031 40.5731 31.683 40.8228 31.9057C41.0724 32.1284 41.352 32.2776 41.6615 32.3531C41.9799 32.4256 42.2987 32.4097 42.6181 32.3052ZM44.7461 21.3123L46.2363 20.8247L49.6323 31.2032L48.1421 31.6908L44.7461 21.3123ZM54.4121 29.8012C53.7468 30.0189 53.137 30.0761 52.5827 29.9726C52.0284 29.8692 51.553 29.632 51.1566 29.2608C50.7573 28.8808 50.4633 28.4026 50.2747 27.826C50.0918 27.2671 50.0683 26.7151 50.2041 26.1698C50.337 25.6156 50.5995 25.1271 50.9914 24.7043C51.3804 24.2726 51.8721 23.9595 52.4664 23.765C53.2382 23.5125 53.9464 23.5311 54.5912 23.821C55.242 24.0991 55.7851 24.6186 56.2207 25.3795L52.3752 28.2582C52.8513 28.6327 53.3998 28.7183 54.0208 28.5152C54.2514 28.4397 54.4557 28.3287 54.6336 28.1821C54.8203 28.0326 54.9895 27.8594 55.1411 27.6624L56.1811 28.5448C55.9404 28.8298 55.666 29.0865 55.3578 29.315C55.0467 29.5347 54.7314 29.6967 54.4121 29.8012ZM51.7122 27.2672C51.7354 27.3382 51.7645 27.4121 51.7995 27.4891L54.4094 25.4713C54.2217 25.2578 53.9909 25.0927 53.7171 24.9761C53.4403 24.8506 53.1112 24.8503 52.7298 24.9751C52.2597 25.1289 51.9275 25.4193 51.7333 25.8462C51.548 26.2702 51.5409 26.7439 51.7122 27.2672Z" fill="#EEEFFB"/>
</svg>
